# xmcd
#
# Track frame offsets:
# 150
# 19974
# 50956
# 81624
# 104261
# 136234
# 160569
# 185403
# 212122
# 238535
# 252088
# 273594
# 296901
# 312036
# 330337
#
# Disc length: 4794 seconds
#
#
# Revision: 0
# Processed by: cddbd v1.5.1PL0 Copyright (c) Steve Scherf et al.
# Submitted via: FreeRIP 2.942 
#
DISCID=db12b80f
DTITLE=Various Artist - Blues Ze Staré pekárny è.1
DYEAR=2002
DGENRE=Blues
TTITLE0=Stan The Man - Big Boss man
TTITLE1=Stan The Man - I Believe To My Soul
TTITLE2=Stan The Man - I Can Stand The Rain
TTITLE3=Dura and Blues CLub - Hlavu si do gypsu dám
TTITLE4=Dura and Blues CLub - Someone
TTITLE5=Dura and Blues CLub - Neplaè Drahá
TTITLE6=Ondøej Konrád and Gumbo - Smack Dab In The Middle
TTITLE7=Ondøej Konrád and Gumbo - What If
TTITLE8=Ondøej Konrád and Gumbo - Jako Nic
TTITLE9=Blues Station - Walk On
TTITLE10=Blues Station - Rainey Day
TTITLE11=Blues Station - Uncle Sam Blues
TTITLE12=Lady 1 - My Days
TTITLE13=Lady 1 - Lady jane
TTITLE14=Lady 1 - Pushed Around
EXTD=
EXTT0=
EXTT1=
EXTT2=
EXTT3=
EXTT4=
EXTT5=
EXTT6=
EXTT7=
EXTT8=
EXTT9=
EXTT10=
EXTT11=
EXTT12=
EXTT13=
EXTT14=
PLAYORDER=
